<svg xmlns="http://www.w3.org/2000/svg" width="28" height="28"  viewBox="0 0 48 48"><defs><style>.cls-1{fill:#424242}.cls-2{fill:#42a5f5}</style></defs><g id="password"><path class="cls-1" d="M38 22v16h-2V22a2 2 0 0 0-2-2H14a2 2 0 0 0-2 2v16h-2V22a4 4 0 0 1 4-4h20a4 4 0 0 1 4 4z"/><path class="cls-2" d="M46 38H2a2 2 0 0 0-2 2v6a2 2 0 0 0 2 2h44a2 2 0 0 0 2-2v-6a2 2 0 0 0-2-2zm-35.77 5.13a1 1 0 0 1-.5 1.87 1.27 1.27 0 0 1-.73-.27V45a1 1 0 0 1-2 0v-.27a1.3 1.3 0 0 1-.73.27 1 1 0 0 1-.5-1.87L6 43l-.23-.13a1 1 0 0 1 1-1.74l.23.14V41a1 1 0 0 1 2 0v.27l.23-.14a1 1 0 0 1 1 1.74L10 43zm8 0a1 1 0 0 1-.5 1.87 1.27 1.27 0 0 1-.73-.27V45a1 1 0 0 1-2 0v-.27a1.3 1.3 0 0 1-.73.27 1 1 0 0 1-.5-1.87L14 43l-.23-.13a1 1 0 0 1 1-1.74l.23.14V41a1 1 0 0 1 2 0v.27l.23-.14a1 1 0 0 1 1 1.74L18 43zm8 0a1 1 0 0 1-.5 1.87 1.27 1.27 0 0 1-.73-.27V45a1 1 0 0 1-2 0v-.27a1.3 1.3 0 0 1-.73.27 1 1 0 0 1-.5-1.87L22 43l-.23-.13a1 1 0 0 1 1-1.74l.23.14V41a1 1 0 0 1 2 0v.27l.23-.14a1 1 0 0 1 1 1.74L26 43zm8 0a1 1 0 0 1-.5 1.87 1.27 1.27 0 0 1-.73-.27V45a1 1 0 0 1-2 0v-.27a1.3 1.3 0 0 1-.73.27 1 1 0 0 1-.5-1.87L30 43l-.23-.13a1 1 0 0 1 1-1.74l.23.14V41a1 1 0 0 1 2 0v.27l.23-.14a1 1 0 0 1 1 1.74L34 43zm8 0a1 1 0 0 1-.5 1.87 1.27 1.27 0 0 1-.73-.27V45a1 1 0 0 1-2 0v-.27a1.3 1.3 0 0 1-.73.27 1 1 0 0 1-.5-1.87L38 43l-.23-.13a1 1 0 0 1 1-1.74l.23.14V41a1 1 0 0 1 2 0v.27l.23-.14a1 1 0 0 1 1 1.74L42 43z"/><path class="cls-1" d="M21.29 24.71a1 1 0 0 1 1.42-1.42l1.29 1.3 1.29-1.3a1 1 0 0 1 1.42 1.42c-3.08 3.07-2.33 3.09-5.42 0zM28 34h-3v-2h3a1 1 0 0 1 0 2zM20 32h3v2h-3a1 1 0 0 1 0-2zM28 30h-3v-2h3a1 1 0 0 1 0 2zM20 28h3v2h-3a1 1 0 0 1 0-2z"/><path class="cls-2" d="M25 35.82V27h1a1 1 0 0 1 1 1v5a3 3 0 0 1-2 2.82zM21 33v-5a1 1 0 0 1 1-1h1v8.82A3 3 0 0 1 21 33z"/><path class="cls-1" d="M24 24a2 2 0 0 1 2 2v1h-4v-1a2 2 0 0 1 2-2z"/><path class="cls-2" d="M34 10v8h-3v-8a7 7 0 0 0-14 0v4h-3v-4a10 10 0 0 1 20 0z"/></g></svg>