<svg xmlns="http://www.w3.org/2000/svg" width="28" height="28" fill="black" class="bi bi-house-fill" viewBox="0 0 32 32"><path d="M29 17a1 1 0 0 0 1-1v-2a1 1 0 0 0-1-1h-2v-.79a2.19 2.19 0 0 0-1.09-1.89A6.5 6.5 0 0 0 20 4V3a1 1 0 0 0-2 0v1a6.29 6.29 0 0 0-2.47.72 1 1 0 0 0 .94 1.76A4.51 4.51 0 0 1 18.58 6h.84a4.51 4.51 0 0 1 4.48 4h-9.8a4.37 4.37 0 0 1 .47-1.54 1 1 0 0 0-.44-1.35 1 1 0 0 0-1.34.43 6.53 6.53 0 0 0-.7 2.78A2.19 2.19 0 0 0 11 12.21V13H8.72L7 7.68A1 1 0 0 0 6 7H3.33a1 1 0 0 0 0 2h2L7 14.16v5.61a2.24 2.24 0 0 0 1 1.86V26a1 1 0 0 0 1 1h1.05a2.73 2.73 0 0 0-.05.5 2.5 2.5 0 0 0 5 0 2.73 2.73 0 0 0 0-.5h7.1a2.73 2.73 0 0 0-.05.5 2.5 2.5 0 0 0 5 0A2.73 2.73 0 0 0 27 27h1a1 1 0 0 0 1-1v-4.37a2.24 2.24 0 0 0 1-1.86 1 1 0 1 0-2 0 .23.23 0 0 1-.23.23h-.89a1 1 0 0 0-.92.6.76.76 0 0 1-.46.44 1.07 1.07 0 0 1-1.1-.54 1 1 0 0 0-.93-.5 1 1 0 0 0-.86.61.81.81 0 0 1-.46.43 1.07 1.07 0 0 1-1.1-.53 1 1 0 0 0-.93-.51 1 1 0 0 0-.86.6.83.83 0 0 1-.46.44 1.09 1.09 0 0 1-1.11-.54 1 1 0 0 0-.93-.5 1 1 0 0 0-.86.61.74.74 0 0 1-.46.43 1.07 1.07 0 0 1-1.1-.53 1 1 0 0 0-.92-.51 1 1 0 0 0-.87.6.79.79 0 0 1-.46.44A1.07 1.07 0 0 1 11 20.5a1 1 0 0 0-.87-.5h-.9a.23.23 0 0 1-.23-.23V15h19v1a1 1 0 0 0 1 1zM13 27.5a.5.5 0 1 1-.5-.5.5.5 0 0 1 .5.5zm12 0a.5.5 0 1 1-.5-.5.5.5 0 0 1 .5.5zM12.62 23a2.67 2.67 0 0 0 .91-.45 3.06 3.06 0 0 0 1.72.55A2.55 2.55 0 0 0 16 23a2.5 2.5 0 0 0 .91-.45 3 3 0 0 0 2.44.45 2.5 2.5 0 0 0 .91-.45 3 3 0 0 0 2.44.45 2.55 2.55 0 0 0 .92-.45A2.94 2.94 0 0 0 26 23a2.42 2.42 0 0 0 1-.51V25H10v-2.63a3 3 0 0 0 2.62.63zM13 13v-.79a.21.21 0 0 1 .21-.21h11.58a.21.21 0 0 1 .21.21V13z" data-name="food cart"/></svg>